<?xml version="1.0" encoding="utf-8"?>
<!-- Generator: Adobe Illustrator 20.1.0, SVG Export Plug-In . SVG Version: 6.00 Build 0)  -->
<svg version="1.1" id="Layer_1" xmlns="http://www.w3.org/2000/svg" xmlns:xlink="http://www.w3.org/1999/xlink" x="0px" y="0px"
	 viewBox="0 0 216 108" style="enable-background:new 0 0 216 108;" xml:space="preserve">
<style type="text/css">
	.st0{fill:#D8D8D7;}
	.st1{fill:#FAAF40;}
</style>
<path class="st0" d="M76.5,2.9c-1.2,0-2,1-2,2s0.7,2,2,2c1.2,0,2-0.7,2-2S77.4,2.9,76.5,2.9L76.5,2.9z"/>
<path class="st0" d="M12,2.9c-1.2,0-2,1-2,2s0.7,2,2,2s2-0.7,2-2S13,2.9,12,2.9L12,2.9z"/>
<path class="st0" d="M19.9,2.9c-1.2,0-2,1-2,2s0.7,2,2,2s2-0.7,2-2S21.2,2.9,19.9,2.9L19.9,2.9z"/>
<path class="st0" d="M28.2,2.9c-1,0-2,1-2,2s1,2,2,2c1.2,0,2.2-0.7,2.2-2S29.2,2.9,28.2,2.9L28.2,2.9z"/>
<path class="st0" d="M36.1,2.9c-1,0-2,1-2,2s1,2,2,2c1.2,0,2-0.7,2-2S37.4,2.9,36.1,2.9L36.1,2.9z"/>
<path class="st0" d="M44.1,2.9c-1.2,0-2,1-2,2s0.7,2,2,2c1.2,0,2-0.7,2-2S45.3,2.9,44.1,2.9L44.1,2.9z"/>
<path class="st0" d="M52.3,2.9c-1.2,0-2,1-2,2s1,2,2,2s2-0.7,2-2S53.3,2.9,52.3,2.9L52.3,2.9z"/>
<path class="st0" d="M60.3,2.9c-1,0-2,1-2,2s1,2,2,2c1.2,0,2-0.7,2-2S61.5,2.9,60.3,2.9L60.3,2.9z"/>
<path class="st0" d="M68.2,2.9c-1.2,0-2,1-2,2s0.7,2,2,2c1.2,0,2-0.7,2-2S69.5,2.9,68.2,2.9L68.2,2.9z"/>
<path class="st0" d="M84.4,2.9c-1.2,0-2,0.7-2,2s1,2,2,2s2-0.7,2-2S85.4,2.9,84.4,2.9L84.4,2.9z"/>
<path class="st0" d="M92.4,2.9c-1,0-2,0.7-2,2s1,2,2,2c1.2,0,2-0.7,2-2S93.6,2.9,92.4,2.9L92.4,2.9z"/>
<path class="st0" d="M100.6,2.9c-1.2,0-2,0.7-2,2s1,2,2,2s2-0.7,2-2S101.6,2.9,100.6,2.9L100.6,2.9z"/>
<path class="st0" d="M108.6,2.9c-1.2,0-2,0.7-2,2s0.7,2,2,2s2-0.7,2-2S109.8,2.9,108.6,2.9L108.6,2.9z"/>
<path class="st0" d="M116.5,2.9c-1.2,0-2,0.7-2,2s1,2,2,2s2-0.7,2-2S117.8,2.9,116.5,2.9L116.5,2.9z"/>
<path class="st0" d="M124.7,2.9c-1,0-2,0.7-2,2s1,2,2,2c1.2,0,2-0.7,2-2S125.7,2.9,124.7,2.9L124.7,2.9z"/>
<path class="st0" d="M132.7,2.9c-1.2,0-2,0.7-2,2s0.7,2,2,2s2-0.7,2-2S134,2.9,132.7,2.9L132.7,2.9z"/>
<path class="st0" d="M140.7,2.9c-1.2,0-2,0.7-2,2s0.7,2,2,2s2-0.7,2-2S141.9,2.9,140.7,2.9L140.7,2.9z"/>
<path class="st0" d="M205.1,10.9c-1.2,0-2,1-2,2c0,1.2,0.7,2,2,2c1,0,2-0.7,2-2S206.1,10.9,205.1,10.9L205.1,10.9z"/>
<path class="st0" d="M76.5,10.9c-1.2,0-2,0.7-2,2s0.7,2,2,2c1.2,0,2-1,2-2C78.4,11.6,77.4,10.9,76.5,10.9L76.5,10.9z"/>
<path class="st0" d="M197.2,10.9c-1.2,0-2,1-2,2s1,2,2,2c1.2,0,2-0.7,2-2S198.2,10.9,197.2,10.9L197.2,10.9z"/>
<path class="st0" d="M19.9,10.9c-1.2,0-2,0.7-2,2s0.7,2,2,2s2-1,2-2S21.2,10.9,19.9,10.9L19.9,10.9z"/>
<path class="st0" d="M28.2,10.9c-1,0-2,0.7-2,2s1,2,2,2c1.2,0,2.2-1,2.2-2S29.2,10.9,28.2,10.9L28.2,10.9z"/>
<path class="st0" d="M36.1,10.9c-1,0-2,0.7-2,2s1,2,2,2c1.2,0,2-1,2-2S37.4,10.9,36.1,10.9L36.1,10.9z"/>
<path class="st0" d="M44.1,10.9c-1.2,0-2,0.7-2,2s0.7,2,2,2c1.2,0,2-1,2-2S45.3,10.9,44.1,10.9L44.1,10.9z"/>
<path class="st0" d="M52.3,10.9c-1.2,0-2,0.7-2,2s1,2,2,2s2-1,2-2S53.3,10.9,52.3,10.9L52.3,10.9z"/>
<path class="st0" d="M60.3,10.9c-1,0-2,0.7-2,2s1,2,2,2c1.2,0,2-1,2-2S61.5,10.9,60.3,10.9L60.3,10.9z"/>
<path class="st0" d="M68.2,10.9c-1.2,0-2,0.7-2,2s0.7,2,2,2c1.2,0,2-1,2-2S69.5,10.9,68.2,10.9L68.2,10.9z"/>
<path class="st0" d="M84.4,10.9c-1.2,0-2,1-2,2s1,2,2,2s2-1,2-2S85.4,10.9,84.4,10.9L84.4,10.9z"/>
<path class="st0" d="M92.4,10.9c-1,0-2,1-2,2s1,2,2,2c1.2,0,2-1,2-2S93.6,10.9,92.4,10.9L92.4,10.9z"/>
<path class="st0" d="M100.6,10.9c-1.2,0-2,1-2,2s1,2,2,2s2-1,2-2S101.6,10.9,100.6,10.9L100.6,10.9z"/>
<path class="st0" d="M108.6,10.9c-1.2,0-2,1-2,2s0.7,2,2,2s2-1,2-2S109.8,10.9,108.6,10.9L108.6,10.9z"/>
<path class="st0" d="M116.5,10.9c-1.2,0-2,1-2,2s1,2,2,2s2-1,2-2C118.8,11.9,117.8,10.9,116.5,10.9L116.5,10.9z"/>
<path class="st0" d="M124.7,10.9c-1,0-2,1-2,2s1,2,2,2c1.2,0,2-1,2-2S125.7,10.9,124.7,10.9L124.7,10.9z"/>
<path class="st0" d="M132.7,10.9c-1.2,0-2,1-2,2s0.7,2,2,2s2-1,2-2S134,10.9,132.7,10.9L132.7,10.9z"/>
<path class="st0" d="M140.7,10.9c-1.2,0-2,1-2,2s0.7,2,2,2s2-1,2-2C142.9,11.9,141.9,10.9,140.7,10.9L140.7,10.9z"/>
<path class="st0" d="M148.9,10.9c-1.2,0-2,1-2,2s1,2,2,2s2-1,2-2S149.9,10.9,148.9,10.9L148.9,10.9z"/>
<path class="st0" d="M205.1,18.9c-1.2,0-2,1-2,2s0.7,2,2,2c1,0,2-1,2-2S206.1,18.9,205.1,18.9L205.1,18.9z"/>
<path class="st0" d="M76.5,18.9c-1.2,0-2,1-2,2s0.7,2,2,2c1.2,0,2-1,2-2C78.4,19.9,77.4,18.9,76.5,18.9L76.5,18.9z"/>
<path class="st0" d="M181,18.9c-1.2,0-2,1-2,2c0,1.2,1,2,2,2s2-1,2-2S182,18.9,181,18.9L181,18.9z"/>
<path class="st0" d="M189,18.9c-1,0-2,1-2,2c0,1.2,1,2,2,2c1.2,0,2-1,2-2S190.2,18.9,189,18.9L189,18.9z"/>
<path class="st0" d="M197.2,18.9c-1.2,0-2,1-2,2c0,1.2,1,2,2,2c1.2,0,2-1,2-2S198.2,18.9,197.2,18.9L197.2,18.9z"/>
<path class="st0" d="M19.9,18.9c-1.2,0-2,1-2,2c0,1.2,0.7,2.2,2,2.2s2-1,2-2.2C22.2,19.9,21.2,18.9,19.9,18.9L19.9,18.9z"/>
<path class="st0" d="M28.2,18.9c-1,0-2,1-2,2c0,1.2,1,2.2,2,2.2c1.2,0,2.2-1,2.2-2.2C30.2,19.9,29.2,18.9,28.2,18.9L28.2,18.9z"/>
<path class="st0" d="M36.1,18.9c-1,0-2,1-2,2c0,1.2,1,2.2,2,2.2c1.2,0,2-1,2-2.2C38.1,19.9,37.4,18.9,36.1,18.9L36.1,18.9z"/>
<path class="st0" d="M44.1,18.9c-1.2,0-2,1-2,2c0,1.2,0.7,2.2,2,2.2c1.2,0,2-1,2-2.2C46.3,19.9,45.3,18.9,44.1,18.9L44.1,18.9z"/>
<path class="st0" d="M52.3,18.9c-1.2,0-2,1-2,2c0,1.2,1,2.2,2,2.2s2-1,2-2.2C54.3,19.9,53.3,18.9,52.3,18.9L52.3,18.9z"/>
<path class="st0" d="M60.3,18.9c-1,0-2,1-2,2c0,1.2,1,2.2,2,2.2c1.2,0,2-1,2-2.2C62.3,19.9,61.5,18.9,60.3,18.9L60.3,18.9z"/>
<path class="st0" d="M68.2,18.9c-1.2,0-2,1-2,2c0,1.2,0.7,2.2,2,2.2c1.2,0,2-1,2-2.2C70.2,19.9,69.5,18.9,68.2,18.9L68.2,18.9z"/>
<path class="st0" d="M84.4,18.9c-1.2,0-2,1-2,2c0,1.2,1,2,2,2s2-1,2-2S85.4,18.9,84.4,18.9L84.4,18.9z"/>
<path class="st0" d="M92.4,18.9c-1,0-2,1-2,2c0,1.2,1,2,2,2c1.2,0,2-1,2-2S93.6,18.9,92.4,18.9L92.4,18.9z"/>
<path class="st0" d="M100.6,18.9c-1.2,0-2,1-2,2c0,1.2,1,2,2,2s2-1,2-2S101.6,18.9,100.6,18.9L100.6,18.9z"/>
<path class="st0" d="M108.6,18.9c-1.2,0-2,1-2,2c0,1.2,0.7,2,2,2s2-1,2-2S109.8,18.9,108.6,18.9L108.6,18.9z"/>
<path class="st0" d="M116.5,18.9c-1.2,0-2,1-2,2c0,1.2,1,2,2,2s2-1,2-2C118.8,19.9,117.8,18.9,116.5,18.9L116.5,18.9z"/>
<path class="st0" d="M124.7,18.9c-1,0-2,1-2,2c0,1.2,1,2,2,2c1.2,0,2-1,2-2S125.7,18.9,124.7,18.9L124.7,18.9z"/>
<path class="st0" d="M132.7,18.9c-1.2,0-2,1-2,2c0,1.2,0.7,2,2,2s2-1,2-2S134,18.9,132.7,18.9L132.7,18.9z"/>
<path class="st0" d="M140.7,18.9c-1.2,0-2,1-2,2c0,1.2,0.7,2,2,2s2-1,2-2C142.9,19.9,141.9,18.9,140.7,18.9L140.7,18.9z"/>
<path class="st0" d="M148.9,18.9c-1.2,0-2,1-2,2c0,1.2,1,2,2,2s2-1,2-2S149.9,18.9,148.9,18.9L148.9,18.9z"/>
<path class="st0" d="M156.9,18.9c-1.2,0-2,1-2,2c0,1.2,1,2,2,2c1.2,0,2-1,2-2C158.8,19.9,158.1,18.9,156.9,18.9L156.9,18.9z"/>
<path class="st0" d="M76.5,26.8c-1.2,0-2,1-2,2c0,1.2,0.7,2,2,2c1.2,0,2-1,2-2C78.4,27.8,77.4,26.8,76.5,26.8L76.5,26.8z"/>
<path class="st0" d="M173,26.8c-1.2,0-2,1-2,2s0.7,2,2,2c1.2,0,2-0.7,2-2S174,26.8,173,26.8L173,26.8z"/>
<path class="st0" d="M181,26.8c-1.2,0-2,1-2,2s1,2,2,2s2-0.7,2-2S182,26.8,181,26.8L181,26.8z"/>
<path class="st0" d="M189,26.8c-1,0-2,1-2,2s1,2,2,2c1.2,0,2-0.7,2-2S190.2,26.8,189,26.8L189,26.8z"/>
<path class="st0" d="M197.2,26.8c-1.2,0-2,1-2,2s1,2,2,2c1.2,0,2-0.7,2-2S198.2,26.8,197.2,26.8L197.2,26.8z"/>
<path class="st0" d="M19.9,27.1c-1.2,0-2,1-2,2s0.7,2,2,2s2-0.7,2-2C21.9,27.8,21.2,27.1,19.9,27.1L19.9,27.1z"/>
<path class="st0" d="M28.2,27.1c-1,0-2,1-2,2s1,2,2,2c1.2,0,2.2-0.7,2.2-2C30.4,27.8,29.2,27.1,28.2,27.1L28.2,27.1z"/>
<path class="st0" d="M36.1,27.1c-1,0-2,1-2,2s1,2,2,2c1.2,0,2-0.7,2-2C38.1,27.8,37.4,27.1,36.1,27.1L36.1,27.1z"/>
<path class="st0" d="M44.1,27.1c-1.2,0-2,1-2,2s0.7,2,2,2c1.2,0,2-0.7,2-2C46.1,27.8,45.3,27.1,44.1,27.1L44.1,27.1z"/>
<path class="st0" d="M52.3,27.1c-1.2,0-2,1-2,2s1,2,2,2s2-0.7,2-2C54.3,27.8,53.3,27.1,52.3,27.1L52.3,27.1z"/>
<path class="st0" d="M60.3,27.1c-1,0-2,1-2,2s1,2,2,2c1.2,0,2-0.7,2-2C62.3,27.8,61.5,27.1,60.3,27.1L60.3,27.1z"/>
<path class="st0" d="M68.2,27.1c-1.2,0-2,1-2,2s0.7,2,2,2c1.2,0,2-0.7,2-2C70.2,27.8,69.5,27.1,68.2,27.1L68.2,27.1z"/>
<path class="st0" d="M84.4,27.1c-1.2,0-2,1-2,2s1,2,2,2s2-0.7,2-2C86.4,27.8,85.4,27.1,84.4,27.1L84.4,27.1z"/>
<path class="st0" d="M92.4,27.1c-1,0-2,1-2,2s1,2,2,2c1.2,0,2-0.7,2-2C94.4,27.8,93.6,27.1,92.4,27.1L92.4,27.1z"/>
<path class="st0" d="M100.6,27.1c-1.2,0-2,1-2,2s1,2,2,2s2-0.7,2-2C102.6,27.8,101.6,27.1,100.6,27.1L100.6,27.1z"/>
<path class="st0" d="M108.6,27.1c-1.2,0-2,1-2,2s0.7,2,2,2s2-0.7,2-2C110.6,27.8,109.8,27.1,108.6,27.1L108.6,27.1z"/>
<path class="st0" d="M116.5,27.1c-1.2,0-2,1-2,2s1,2,2,2s2-0.7,2-2C118.5,27.8,117.8,27.1,116.5,27.1L116.5,27.1z"/>
<path class="st0" d="M124.7,27.1c-1,0-2,1-2,2s1,2,2,2c1.2,0,2-0.7,2-2C126.7,27.8,125.7,27.1,124.7,27.1L124.7,27.1z"/>
<path class="st0" d="M132.7,27.1c-1.2,0-2,1-2,2s0.7,2,2,2s2-0.7,2-2C134.7,27.8,134,27.1,132.7,27.1L132.7,27.1z"/>
<path class="st0" d="M140.7,27.1c-1.2,0-2,1-2,2s0.7,2,2,2s2-0.7,2-2C142.7,27.8,141.9,27.1,140.7,27.1L140.7,27.1z"/>
<path class="st0" d="M148.9,27.1c-1.2,0-2,1-2,2s1,2,2,2s2-0.7,2-2C150.9,27.8,149.9,27.1,148.9,27.1L148.9,27.1z"/>
<path class="st0" d="M156.9,27.1c-1.2,0-2,1-2,2s1,2,2,2c1.2,0,2-0.7,2-2C158.8,27.8,158.1,27.1,156.9,27.1L156.9,27.1z"/>
<path class="st0" d="M164.8,27.1c-1.2,0-2,1-2,2s0.7,2,2,2c1.2,0,2-0.7,2-2C166.8,27.8,166.1,27.1,164.8,27.1L164.8,27.1z"/>
<path class="st0" d="M76.5,35c-1.2,0-2,1-2,2s0.7,2,2,2c1.2,0,2-0.7,2-2C78.4,35.8,77.4,35,76.5,35L76.5,35z"/>
<path class="st0" d="M19.9,35c-1.2,0-2,1-2,2s0.7,2,2,2s2-1,2-2C22.2,36,21.2,35,19.9,35L19.9,35z"/>
<path class="st0" d="M28.2,35c-1,0-2,1-2,2s1,2,2,2c1.2,0,2.2-1,2.2-2C30.2,36,29.2,35,28.2,35L28.2,35z"/>
<path class="st0" d="M36.1,35c-1,0-2,1-2,2s1,2,2,2c1.2,0,2-1,2-2S37.4,35,36.1,35L36.1,35z"/>
<path class="st0" d="M44.1,35c-1.2,0-2,1-2,2s0.7,2,2,2c1.2,0,2-1,2-2C46.3,36,45.3,35,44.1,35L44.1,35z"/>
<path class="st0" d="M52.3,35c-1.2,0-2,1-2,2s1,2,2,2s2-1,2-2S53.3,35,52.3,35L52.3,35z"/>
<path class="st0" d="M60.3,35c-1,0-2,1-2,2s1,2,2,2c1.2,0,2-1,2-2S61.5,35,60.3,35L60.3,35z"/>
<path class="st0" d="M68.2,35c-1.2,0-2,1-2,2s0.7,2,2,2c1.2,0,2-1,2-2S69.5,35,68.2,35L68.2,35z"/>
<path class="st0" d="M84.4,35c-1.2,0-2,1-2,2s1,2,2,2s2-1,2-2S85.4,35,84.4,35L84.4,35z"/>
<path class="st0" d="M92.4,35c-1,0-2,1-2,2s1,2,2,2c1.2,0,2-1,2-2S93.6,35,92.4,35L92.4,35z"/>
<path class="st0" d="M100.6,35c-1.2,0-2,1-2,2s1,2,2,2s2-1,2-2S101.6,35,100.6,35L100.6,35z"/>
<path class="st0" d="M108.6,35c-1.2,0-2,1-2,2s0.7,2,2,2s2-1,2-2S109.8,35,108.6,35L108.6,35z"/>
<path class="st0" d="M116.5,35c-1.2,0-2,1-2,2s1,2,2,2s2-1,2-2C118.8,36,117.8,35,116.5,35L116.5,35z"/>
<path class="st0" d="M124.7,35c-1,0-2,1-2,2s1,2,2,2c1.2,0,2-1,2-2S125.7,35,124.7,35L124.7,35z"/>
<path class="st0" d="M132.7,35c-1.2,0-2,1-2,2s0.7,2,2,2s2-1,2-2S134,35,132.7,35L132.7,35z"/>
<path class="st0" d="M140.7,35c-1.2,0-2,1-2,2s0.7,2,2,2s2-1,2-2C142.9,36,141.9,35,140.7,35L140.7,35z"/>
<path class="st0" d="M148.9,35c-1.2,0-2,1-2,2s1,2,2,2s2-1,2-2S149.9,35,148.9,35L148.9,35z"/>
<path class="st0" d="M156.9,35c-1.2,0-2,1-2,2s1,2,2,2c1.2,0,2-1,2-2C158.8,36,158.1,35,156.9,35L156.9,35z"/>
<path class="st0" d="M164.8,35c-1.2,0-2,1-2,2s0.7,2,2,2c1.2,0,2-1,2-2S166.1,35,164.8,35L164.8,35z"/>
<path class="st0" d="M173,35c-1.2,0-2,0.7-2,2c0,1.2,0.7,2,2,2c1.2,0,2-0.7,2-2C175,35.8,174,35,173,35L173,35z"/>
<path class="st0" d="M181,35c-1.2,0-2,0.7-2,2c0,1.2,1,2,2,2s2-0.7,2-2C183,35.8,182,35,181,35L181,35z"/>
<path class="st0" d="M181,43.1c-1.2,0-2,0.7-2,2c0,1.2,1,2,2,2s2-0.7,2-2S182,43.1,181,43.1L181,43.1z"/>
<path class="st0" d="M189,43.1c-1.2,0-2,0.7-2,2c0,1.2,1,2,2,2s2-0.7,2-2S190,43.1,189,43.1L189,43.1z"/>
<path class="st0" d="M181,51.1c-1.2,0-2,0.7-2,2c0,1.2,1,2,2,2s2-0.7,2-2S182,51.1,181,51.1L181,51.1z"/>
<path class="st0" d="M189,35c-1,0-2,0.7-2,2c0,1.2,1,2,2,2c1.2,0,2-0.7,2-2C191,35.8,190.2,35,189,35L189,35z"/>
<path class="st0" d="M197.2,35c-1.2,0-2,0.7-2,2c0,1.2,1,2,2,2c1.2,0,2-0.7,2-2C199.2,35.8,198.2,35,197.2,35L197.2,35z"/>
<path class="st0" d="M76.5,43c-1.2,0-2,0.7-2,2c0,1,0.7,2,2,2c1.2,0,2-1,2-2C78.4,44,77.4,43,76.5,43L76.5,43z"/>
<path class="st0" d="M173,43c-1.2,0-2,0.7-2,2c0,1,0.7,2,2,2c1.2,0,2-1,2-2S174,43,173,43L173,43z"/>
<path class="st0" d="M19.9,43c-1.2,0-2,1-2,2s0.7,2,2,2s2-1,2-2C22.2,44,21.2,43,19.9,43L19.9,43z"/>
<path class="st0" d="M28.2,43c-1,0-2,1-2,2s1,2,2,2c1.2,0,2.2-1,2.2-2C30.2,44,29.2,43,28.2,43L28.2,43z"/>
<path class="st0" d="M36.1,43c-1,0-2,1-2,2s1,2,2,2c1.2,0,2-1,2-2S37.4,43,36.1,43L36.1,43z"/>
<path class="st0" d="M44.1,43c-1.2,0-2,1-2,2s0.7,2,2,2c1.2,0,2-1,2-2C46.3,44,45.3,43,44.1,43L44.1,43z"/>
<path class="st0" d="M52.3,43c-1.2,0-2,1-2,2s1,2,2,2s2-1,2-2S53.3,43,52.3,43L52.3,43z"/>
<path class="st0" d="M60.3,43c-1,0-2,1-2,2s1,2,2,2c1.2,0,2-1,2-2S61.5,43,60.3,43L60.3,43z"/>
<path class="st0" d="M68.2,43c-1.2,0-2,1-2,2s0.7,2,2,2c1.2,0,2-1,2-2S69.5,43,68.2,43L68.2,43z"/>
<path class="st0" d="M84.4,43c-1.2,0-2,1-2,2s1,2,2,2s2-1,2-2S85.4,43,84.4,43L84.4,43z"/>
<path class="st0" d="M92.4,43c-1,0-2,1-2,2s1,2,2,2c1.2,0,2-1,2-2S93.6,43,92.4,43L92.4,43z"/>
<path class="st0" d="M100.6,43c-1.2,0-2,1-2,2s1,2,2,2s2-1,2-2S101.6,43,100.6,43L100.6,43z"/>
<path class="st0" d="M108.6,43c-1.2,0-2,1-2,2s0.7,2,2,2s2-1,2-2S109.8,43,108.6,43L108.6,43z"/>
<path class="st0" d="M116.5,43c-1.2,0-2,1-2,2s1,2,2,2s2-1,2-2C118.8,44,117.8,43,116.5,43L116.5,43z"/>
<path class="st0" d="M124.7,43c-1,0-2,1-2,2s1,2,2,2c1.2,0,2-1,2-2S125.7,43,124.7,43L124.7,43z"/>
<path class="st0" d="M132.7,43c-1.2,0-2,1-2,2s0.7,2,2,2s2-1,2-2S134,43,132.7,43L132.7,43z"/>
<path class="st0" d="M140.7,43c-1.2,0-2,1-2,2s0.7,2,2,2s2-1,2-2C142.9,44,141.9,43,140.7,43L140.7,43z"/>
<path class="st0" d="M148.9,43c-1.2,0-2,1-2,2s1,2,2,2s2-1,2-2S149.9,43,148.9,43L148.9,43z"/>
<path class="st0" d="M156.9,43c-1.2,0-2,1-2,2s1,2,2,2c1.2,0,2-1,2-2C158.8,44,158.1,43,156.9,43L156.9,43z"/>
<path class="st0" d="M164.8,43c-1.2,0-2,1-2,2s0.7,2,2,2c1.2,0,2-1,2-2S166.1,43,164.8,43L164.8,43z"/>
<path class="st0" d="M76.5,51.2c-1.2,0-2,1-2,2c0,1.2,0.7,2,2,2c1.2,0,2-1,2-2C78.4,52,77.4,51.2,76.5,51.2L76.5,51.2z"/>
<path class="st0" d="M173,51.2c-1.2,0-2,1-2,2c0,1.2,0.7,2,2,2c1.2,0,2-1,2-2C175,52,174,51.2,173,51.2L173,51.2z"/>
<path class="st0" d="M19.9,51.2c-1.2,0-2,1-2,2c0,1.2,0.7,2,2,2s2-0.7,2-2C22.2,52.2,21.2,51.2,19.9,51.2L19.9,51.2z"/>
<path class="st0" d="M28.2,51.2c-1,0-2,1-2,2c0,1.2,1,2,2,2c1.2,0,2.2-0.7,2.2-2C30.2,52.2,29.2,51.2,28.2,51.2L28.2,51.2z"/>
<path class="st0" d="M36.1,51.2c-1,0-2,1-2,2c0,1.2,1,2,2,2c1.2,0,2-0.7,2-2C38.1,52.2,37.4,51.2,36.1,51.2L36.1,51.2z"/>
<path class="st0" d="M44.1,51.2c-1.2,0-2,1-2,2c0,1.2,0.7,2,2,2c1.2,0,2-0.7,2-2C46.3,52.2,45.3,51.2,44.1,51.2L44.1,51.2z"/>
<path class="st0" d="M52.3,51.2c-1.2,0-2,1-2,2c0,1.2,1,2,2,2s2-0.7,2-2C54.3,52.2,53.3,51.2,52.3,51.2L52.3,51.2z"/>
<path class="st0" d="M60.3,51.2c-1,0-2,1-2,2c0,1.2,1,2,2,2c1.2,0,2-0.7,2-2C62.3,52.2,61.5,51.2,60.3,51.2L60.3,51.2z"/>
<path class="st0" d="M68.2,51.2c-1.2,0-2,1-2,2c0,1.2,0.7,2,2,2c1.2,0,2-0.7,2-2C70.2,52.2,69.5,51.2,68.2,51.2L68.2,51.2z"/>
<path class="st0" d="M84.4,51.2c-1.2,0-2,1-2,2c0,1.2,1,2,2,2s2-1,2-2S85.4,51.2,84.4,51.2L84.4,51.2z"/>
<path class="st0" d="M92.4,51.2c-1,0-2,1-2,2c0,1.2,1,2,2,2c1.2,0,2-1,2-2S93.6,51.2,92.4,51.2L92.4,51.2z"/>
<path class="st0" d="M100.6,51.2c-1.2,0-2,1-2,2c0,1.2,1,2,2,2s2-1,2-2S101.6,51.2,100.6,51.2L100.6,51.2z"/>
<path class="st0" d="M108.6,51.2c-1.2,0-2,1-2,2c0,1.2,0.7,2,2,2s2-1,2-2S109.8,51.2,108.6,51.2L108.6,51.2z"/>
<path class="st0" d="M116.5,51.2c-1.2,0-2,1-2,2c0,1.2,1,2,2,2s2-1,2-2C118.8,52.2,117.8,51.2,116.5,51.2L116.5,51.2z"/>
<path class="st0" d="M124.7,51.2c-1,0-2,1-2,2c0,1.2,1,2,2,2c1.2,0,2-1,2-2S125.7,51.2,124.7,51.2L124.7,51.2z"/>
<path class="st0" d="M132.7,51.2c-1.2,0-2,1-2,2c0,1.2,0.7,2,2,2s2-1,2-2S134,51.2,132.7,51.2L132.7,51.2z"/>
<path class="st0" d="M140.7,51.2c-1.2,0-2,1-2,2c0,1.2,0.7,2,2,2s2-1,2-2C142.9,52.2,141.9,51.2,140.7,51.2L140.7,51.2z"/>
<path class="st0" d="M148.9,51.2c-1.2,0-2,1-2,2c0,1.2,1,2,2,2s2-1,2-2S149.9,51.2,148.9,51.2L148.9,51.2z"/>
<path class="st0" d="M156.9,51.2c-1.2,0-2,1-2,2c0,1.2,1,2,2,2c1.2,0,2-1,2-2C158.8,52.2,158.1,51.2,156.9,51.2L156.9,51.2z"/>
<path class="st0" d="M164.8,51.2c-1.2,0-2,1-2,2c0,1.2,0.7,2,2,2c1.2,0,2-1,2-2S166.1,51.2,164.8,51.2L164.8,51.2z"/>
<path class="st0" d="M76.5,59.2c-1.2,0-2,0.7-2,2c0,1.2,0.7,2,2,2c1.2,0,2-0.7,2-2C78.4,59.9,77.4,59.2,76.5,59.2L76.5,59.2z"/>
<path class="st0" d="M173,59.2c-1.2,0-2,0.7-2,2c0,1.2,0.7,2,2,2c1.2,0,2-1,2-2S174,59.2,173,59.2L173,59.2z"/>
<path class="st0" d="M181,59.2c-1.2,0-2,0.7-2,2c0,1.2,1,2,2,2s2-1,2-2S182,59.2,181,59.2L181,59.2z"/>
<path class="st0" d="M28.2,59.2c-1,0-2,0.7-2,2c0,1.2,1,2,2,2c1.2,0,2.2-0.7,2.2-2C30.4,59.9,29.2,59.2,28.2,59.2L28.2,59.2z"/>
<path class="st0" d="M36.1,59.2c-1,0-2,0.7-2,2c0,1.2,1,2,2,2c1.2,0,2-0.7,2-2S37.4,59.2,36.1,59.2L36.1,59.2z"/>
<path class="st0" d="M52.3,59.2c-1.2,0-2,0.7-2,2c0,1.2,1,2,2,2s2-0.7,2-2S53.3,59.2,52.3,59.2L52.3,59.2z"/>
<path class="st0" d="M60.3,59.2c-1,0-2,0.7-2,2c0,1.2,1,2,2,2c1.2,0,2-0.7,2-2S61.5,59.2,60.3,59.2L60.3,59.2z"/>
<path class="st0" d="M68.2,59.2c-1.2,0-2,0.7-2,2c0,1.2,0.7,2,2,2c1.2,0,2-0.7,2-2S69.5,59.2,68.2,59.2L68.2,59.2z"/>
<path class="st0" d="M84.4,59.2c-1.2,0-2,0.7-2,2c0,1.2,1,2,2,2s2-1,2-2S85.4,59.2,84.4,59.2L84.4,59.2z"/>
<path class="st0" d="M92.4,59.2c-1,0-2,0.7-2,2c0,1.2,1,2,2,2c1.2,0,2-1,2-2S93.6,59.2,92.4,59.2L92.4,59.2z"/>
<path class="st0" d="M100.6,59.2c-1.2,0-2,0.7-2,2c0,1.2,1,2,2,2s2-1,2-2S101.6,59.2,100.6,59.2L100.6,59.2z"/>
<path class="st0" d="M108.6,59.2c-1.2,0-2,0.7-2,2c0,1.2,1,2,2,2c1.2,0,2-1,2-2S109.8,59.2,108.6,59.2L108.6,59.2z"/>
<path class="st0" d="M116.5,59.2c-1.2,0-2,0.7-2,2c0,1.2,1,2,2,2s2-1,2-2S117.8,59.2,116.5,59.2L116.5,59.2z"/>
<path class="st0" d="M124.7,59.2c-1,0-2,0.7-2,2c0,1.2,1,2,2,2c1.2,0,2-1,2-2S125.7,59.2,124.7,59.2L124.7,59.2z"/>
<path class="st0" d="M132.7,59.2c-1.2,0-2,0.7-2,2c0,1.2,0.7,2,2,2s2-1,2-2S134,59.2,132.7,59.2L132.7,59.2z"/>
<path class="st0" d="M140.7,59.2c-1.2,0-2,0.7-2,2c0,1.2,0.7,2,2,2s2-1,2-2S141.9,59.2,140.7,59.2L140.7,59.2z"/>
<path class="st0" d="M148.9,59.2c-1.2,0-2,0.7-2,2c0,1.2,1,2,2,2s2-1,2-2S149.9,59.2,148.9,59.2L148.9,59.2z"/>
<path class="st0" d="M156.9,59.2c-1.2,0-2,0.7-2,2c0,1.2,1,2,2,2c1.2,0,2-1,2-2C158.8,60.2,158.1,59.2,156.9,59.2L156.9,59.2z"/>
<path class="st0" d="M164.8,59.2c-1.2,0-2,0.7-2,2c0,1.2,0.7,2,2,2c1.2,0,2-1,2-2S166.1,59.2,164.8,59.2L164.8,59.2z"/>
<path class="st0" d="M76.5,67.4c-1.2,0-2,0.7-2,2c0,1.2,0.7,2,2,2c1.2,0,2-0.7,2-2C78.4,68.1,77.4,67.4,76.5,67.4L76.5,67.4z"/>
<path class="st0" d="M173,67.4c-1.2,0-2,1-2,2s0.7,2,2,2c1.2,0,2-1,2-2C175,68.1,174,67.4,173,67.4L173,67.4z"/>
<path class="st0" d="M36.1,67.4c-1,0-2,1-2,2s1,2,2,2c1.2,0,2-1,2-2C38.1,68.1,37.4,67.4,36.1,67.4L36.1,67.4z"/>
<path class="st0" d="M52.3,67.4c-1.2,0-2,1-2,2s1,2,2,2s2-1,2-2C54.3,68.1,53.3,67.4,52.3,67.4L52.3,67.4z"/>
<path class="st0" d="M60.3,67.4c-1,0-2,1-2,2s1,2,2,2c1.2,0,2-1,2-2C62.3,68.1,61.5,67.4,60.3,67.4L60.3,67.4z"/>
<path class="st0" d="M68.2,67.4c-1.2,0-2,1-2,2s0.7,2,2,2c1.2,0,2-1,2-2C70.2,68.1,69.5,67.4,68.2,67.4L68.2,67.4z"/>
<path class="st0" d="M84.4,67.4c-1.2,0-2,1-2,2s1,2,2,2s2-1,2-2C86.4,68.1,85.4,67.4,84.4,67.4L84.4,67.4z"/>
<path class="st0" d="M92.4,67.4c-1,0-2,1-2,2s1,2,2,2c1.2,0,2-1,2-2C94.4,68.1,93.6,67.4,92.4,67.4L92.4,67.4z"/>
<path class="st0" d="M100.6,67.4c-1.2,0-2,1-2,2s1,2,2,2s2-1,2-2C102.6,68.1,101.6,67.4,100.6,67.4L100.6,67.4z"/>
<path class="st0" d="M108.6,67.4c-1.2,0-2,1-2,2s0.7,2,2,2s2-1,2-2C110.6,68.1,109.8,67.4,108.6,67.4L108.6,67.4z"/>
<path class="st0" d="M116.5,67.4c-1.2,0-2,1-2,2s1,2,2,2s2-1,2-2C118.8,68.1,117.8,67.4,116.5,67.4L116.5,67.4z"/>
<path class="st0" d="M124.7,67.4c-1,0-2,1-2,2s1,2,2,2c1.2,0,2-1,2-2C126.7,68.1,125.7,67.4,124.7,67.4L124.7,67.4z"/>
<path class="st0" d="M132.7,67.4c-1.2,0-2,1-2,2s0.7,2,2,2s2-1,2-2C134.7,68.1,134,67.4,132.7,67.4L132.7,67.4z"/>
<path class="st0" d="M140.7,67.4c-1.2,0-2,1-2,2s0.7,2,2,2s2-1,2-2C142.9,68.1,141.9,67.4,140.7,67.4L140.7,67.4z"/>
<path class="st0" d="M148.9,67.4c-1.2,0-2,1-2,2s1,2,2,2s2-1,2-2C150.9,68.1,149.9,67.4,148.9,67.4L148.9,67.4z"/>
<path class="st0" d="M156.9,67.4c-1.2,0-2,1-2,2s1,2,2,2c1.2,0,2-1,2-2C158.8,68.1,158.1,67.4,156.9,67.4L156.9,67.4z"/>
<path class="st0" d="M164.8,67.4c-1.2,0-2,1-2,2s0.7,2,2,2c1.2,0,2-1,2-2C166.8,68.1,166.1,67.4,164.8,67.4L164.8,67.4z"/>
<path class="st0" d="M76.5,75.1c-1.2,0-2,1-2,2s0.7,2,2,2c1.2,0,2-1,2-2C78.4,76.1,77.4,75.1,76.5,75.1L76.5,75.1z"/>
<path class="st0" d="M52.3,75.4c-1.2,0-2,1-2,2s1,2,2,2s2-1,2-2C54.3,76.1,53.3,75.4,52.3,75.4L52.3,75.4z"/>
<path class="st0" d="M60.3,75.4c-1,0-2,1-2,2s1,2,2,2c1.2,0,2-1,2-2C62.3,76.1,61.5,75.4,60.3,75.4L60.3,75.4z"/>
<path class="st0" d="M68.2,75.4c-1.2,0-2,1-2,2s0.7,2,2,2c1.2,0,2-1,2-2C70.2,76.1,69.5,75.4,68.2,75.4L68.2,75.4z"/>
<path class="st0" d="M84.4,75.4c-1.2,0-2,1-2,2s1,2,2,2s2-1,2-2C86.4,76.1,85.4,75.4,84.4,75.4L84.4,75.4z"/>
<path class="st0" d="M92.4,75.4c-1,0-2,1-2,2s1,2,2,2c1.2,0,2-1,2-2C94.4,76.1,93.6,75.4,92.4,75.4L92.4,75.4z"/>
<path class="st0" d="M100.6,75.4c-1.2,0-2,1-2,2s1,2,2,2s2-1,2-2C102.6,76.1,101.6,75.4,100.6,75.4L100.6,75.4z"/>
<path class="st0" d="M108.6,75.4c-1.2,0-2,1-2,2s0.7,2,2,2s2-1,2-2C110.6,76.1,109.8,75.4,108.6,75.4L108.6,75.4z"/>
<path class="st0" d="M116.5,75.4c-1.2,0-2,1-2,2s1,2,2,2s2-1,2-2C118.8,76.1,117.8,75.4,116.5,75.4L116.5,75.4z"/>
<path class="st0" d="M124.7,75.4c-1,0-2,1-2,2s1,2,2,2c1.2,0,2-1,2-2C126.7,76.1,125.7,75.4,124.7,75.4L124.7,75.4z"/>
<path class="st0" d="M132.7,75.4c-1.2,0-2,1-2,2s0.7,2,2,2s2-1,2-2C134.7,76.1,134,75.4,132.7,75.4L132.7,75.4z"/>
<path class="st0" d="M140.7,75.4c-1.2,0-2,1-2,2s0.7,2,2,2s2-1,2-2C142.9,76.1,141.9,75.4,140.7,75.4L140.7,75.4z"/>
<path class="st0" d="M148.9,75.4c-1.2,0-2,1-2,2s1,2,2,2s2-1,2-2C150.9,76.1,149.9,75.4,148.9,75.4L148.9,75.4z"/>
<path class="st0" d="M156.9,75.4c-1.2,0-2,1-2,2s1,2,2,2c1.2,0,2-1,2-2C158.8,76.1,158.1,75.4,156.9,75.4L156.9,75.4z"/>
<path class="st0" d="M84.4,83.3c-1.2,0-2,1-2,2c0,1.2,1,2,2,2s2-0.7,2-2C86.4,84.3,85.4,83.3,84.4,83.3L84.4,83.3z"/>
<path class="st0" d="M92.4,83.3c-1,0-2,1-2,2c0,1.2,1,2,2,2c1.2,0,2-0.7,2-2C94.4,84.3,93.6,83.3,92.4,83.3L92.4,83.3z"/>
<path class="st0" d="M100.6,83.3c-1.2,0-2,1-2,2c0,1.2,1,2,2,2s2-0.7,2-2C102.6,84.3,101.6,83.3,100.6,83.3L100.6,83.3z"/>
<path class="st0" d="M108.6,83.3c-1.2,0-2,1-2,2c0,1.2,0.7,2,2,2s2-0.7,2-2C110.6,84.3,109.8,83.3,108.6,83.3L108.6,83.3z"/>
<path class="st0" d="M116.5,83.3c-1.2,0-2,1-2,2c0,1.2,1,2,2,2s2-0.7,2-2C118.8,84.3,117.8,83.3,116.5,83.3L116.5,83.3z"/>
<path class="st0" d="M124.7,83.3c-1,0-2,1-2,2c0,1.2,1,2,2,2c1.2,0,2-0.7,2-2C126.7,84.3,125.7,83.3,124.7,83.3L124.7,83.3z"/>
<path class="st0" d="M132.7,83.3c-1.2,0-2,1-2,2c0,1.2,0.7,2,2,2s2-0.7,2-2C134.7,84.3,134,83.3,132.7,83.3L132.7,83.3z"/>
<path class="st0" d="M140.7,83.3c-1.2,0-2,1-2,2c0,1.2,0.7,2,2,2s2-0.7,2-2C142.9,84.3,141.9,83.3,140.7,83.3L140.7,83.3z"/>
<path class="st0" d="M148.9,83.3c-1.2,0-2,1-2,2c0,1.2,1,2,2,2s2-0.7,2-2C150.9,84.3,149.9,83.3,148.9,83.3L148.9,83.3z"/>
<path class="st0" d="M156.9,83.3c-1.2,0-2,1-2,2c0,1.2,1,2,2,2c1.2,0,2-0.7,2-2C158.8,84.3,158.1,83.3,156.9,83.3L156.9,83.3z"/>
<path class="st0" d="M100.6,91.3c-1.2,0-2,1-2,2s1,2,2,2s2-0.7,2-2S101.6,91.3,100.6,91.3L100.6,91.3z"/>
<path class="st0" d="M108.6,91.3c-1.2,0-2,1-2,2s1,2.2,2,2.2c1.2,0,2-0.7,2-2C110.6,92.3,109.8,91.3,108.6,91.3L108.6,91.3z"/>
<path class="st0" d="M156.9,91.3c-1.2,0-2,1-2,2s1,2,2,2c1.2,0,2-0.7,2-2C158.8,92,158.1,91.3,156.9,91.3L156.9,91.3z"/>
<path class="st0" d="M164.8,91.3c-1.2,0-2,1-2,2s0.7,2,2,2c1.2,0,2-0.7,2-2S166.1,91.3,164.8,91.3L164.8,91.3z"/>
<path class="st0" d="M108.6,99.5c-1.2,0-2,1-2,2.2c0,1,0.7,2,2,2s2-1,2-2C110.6,100.5,109.8,99.5,108.6,99.5L108.6,99.5z"/>
<path class="st0" d="M164.8,99.5c-1.2,0-2,1-2,2.2c0,1,0.7,2,2,2c1.2,0,2-1,2-2C166.8,100.5,166.1,99.5,164.8,99.5L164.8,99.5z"/>
<path class="st1" d="M45.9,63.9c0,7.4-6,13.5-13.5,13.5c-7.4,0-13.5-6-13.5-13.5c0-7.4,6-13.5,13.5-13.5
	C39.9,50.5,45.9,56.5,45.9,63.9"/>
</svg>
