<?xml version="1.0" encoding="utf-8"?>
<!-- Generator: Adobe Illustrator 20.1.0, SVG Export Plug-In . SVG Version: 6.00 Build 0)  -->
<svg version="1.1" id="Layer_1" xmlns="http://www.w3.org/2000/svg" xmlns:xlink="http://www.w3.org/1999/xlink" x="0px" y="0px"
	 viewBox="0 0 216 108" style="enable-background:new 0 0 216 108;" xml:space="preserve">
<style type="text/css">
	.st0{fill:none;stroke:#D8D8D7;stroke-width:2;stroke-miterlimit:10;}
	.st1{fill:#FAAF40;}
</style>
<g sketch:type="MSPage">
	<g>
		<path sketch:type="MSShapeGroup" class="st0" d="M104.8,46.4L66.7,16.2c-1.1-0.8-2.6-0.8-3.6,0L24.9,46.4
			c-0.7,0.6-1.1,1.4-1.1,2.3v45.4H106V48.7C106,47.8,105.5,47,104.8,46.4L104.8,46.4z"/>
		<path class="st0" d="M74.5,93.8H55.3V62.7h19.2V93.8z"/>
	</g>
</g>
<line class="st0" x1="15.1" y1="94.1" x2="206.5" y2="94.1"/>
<g>
	<path class="st1" d="M134,90l-4.1-14.1c-0.2-1-1.2-1.8-2.2-1.8h-2.4c-1,0-2,0.8-2.2,1.8L119,90c-0.2,1,0.4,1.8,1.4,1.8h0.5h1.8
		l0.1,1.8l0.3,3.5c0.1,1,0.8,1.8,1.7,1.8h3c0.8,0,1.6-0.8,1.7-1.8l0.3-3.5l0.1-1.8h1.8h0.7C133.6,91.8,134.2,91,134,90 M131.5,67.6
		L130,68c-0.4-1.5-1.8-2.6-3.5-2.6s-3,1.1-3.5,2.6l-1.5-0.4c-0.2,0-0.3,0.1-0.3,0.3V68v0.4v1.4v0.4v0.1c0,0.2,0.2,0.3,0.3,0.3
		l1.5-0.4c0.4,1.5,1.8,2.6,3.5,2.6c1.7,0,3-1.1,3.5-2.6l1.5,0.4c0.2,0,0.3-0.1,0.3-0.3v-0.1v-0.4v-1.4V68v-0.1
		C131.9,67.7,131.7,67.5,131.5,67.6"/>
	<g>
		<path class="st1" d="M195.5,86.9l-1.2-5.8c-0.2-0.8-0.9-1.4-1.7-1.4h-1h-2.8h-1c-0.8,0-1.5,0.6-1.7,1.4l-1.2,5.8
			c-0.2,0.8,0.2,1.4,0.9,1.4h1.2l0.1,1.4l0.6,7.8c0.1,0.8,0.6,1.4,1.3,1.4h2.4c0.6,0,1.2-0.6,1.3-1.4l0.6-7.8l0.1-1.4h1.3
			C195.2,88.3,195.6,87.7,195.5,86.9"/>
		<path class="st1" d="M192.9,75.8c0-1.5-1.3-2.8-2.8-2.8c-1.5,0-2.8,1.3-2.8,2.8c0,1.5,1.3,2.8,2.8,2.8
			C191.7,78.6,192.9,77.4,192.9,75.8"/>
	</g>
	<g>
		<path class="st1" d="M179.7,86.9l-5.6-19c-0.3-1.3-1.6-2.4-2.9-2.4H168c-1.3,0-2.7,1.1-3,2.4l-5.5,19c-0.3,1.3,0.6,2.4,2,2.4h0.7
			h2.5l0.2,2.4l0.4,4.7c0.1,1.3,1.1,2.4,2.2,2.4h4.1c1.1,0,2.1-1.1,2.3-2.4l0.4-4.7l0.2-2.4h2.5h0.9C179.2,89.3,180,88.2,179.7,86.9
			"/>
		<path class="st1" d="M174.6,58.6c0-2.7-2.2-4.9-4.9-4.9c-2.7,0-4.9,2.2-4.9,4.9c0,2.7,2.2,4.9,4.9,4.9
			C172.4,63.5,174.6,61.3,174.6,58.6"/>
	</g>
	<g>
		<path class="st1" d="M156,78c0.3,1.3-0.5,2.4-1.7,2.4h-2.2l-0.2,2.4l-1.1,13.6c-0.1,1.3-1.1,2.4-2.2,2.4h-4.1
			c-1.1,0-2.1-1.1-2.2-2.4l-1.1-13.6l-0.2-2.4h-2.1c-1.2,0-1.9-1.1-1.6-2.4l2.2-10.1c0.3-1.3,1.6-2.4,3-2.4h1.8h4.9h1.8
			c1.3,0,2.7,1.1,3,2.4L156,78"/>
		<path class="st1" d="M151.5,58.6c0-2.7-2.2-4.9-4.9-4.9c-2.7,0-4.9,2.2-4.9,4.9c0,2.7,2.2,4.9,4.9,4.9
			C149.4,63.5,151.5,61.3,151.5,58.6"/>
	</g>
</g>
</svg>
