<?xml version="1.0" encoding="utf-8"?>
<!-- Generator: Adobe Illustrator 20.1.0, SVG Export Plug-In . SVG Version: 6.00 Build 0)  -->
<svg version="1.1" id="Layer_1" xmlns="http://www.w3.org/2000/svg" xmlns:xlink="http://www.w3.org/1999/xlink" x="0px" y="0px"
	 viewBox="0 0 216 108" style="enable-background:new 0 0 216 108;" xml:space="preserve">
<style type="text/css">
	.st0{fill:none;stroke:#D8D8D7;stroke-width:2;stroke-miterlimit:10;}
	.st1{fill:#FAAF40;}
</style>
<path class="st0" d="M102.8,45.9L64.7,15.7c-1.1-0.8-2.6-0.8-3.6,0L22.9,45.9c-0.7,0.6-1.1,1.4-1.1,2.3v45.4H104V48.2
	C104,47.3,103.5,46.5,102.8,45.9L102.8,45.9z"/>
<rect x="53.3" y="62.2" class="st0" width="19.2" height="31.1"/>
<line class="st0" x1="13.1" y1="93.6" x2="204.5" y2="93.6"/>
<g>
	<path class="st1" d="M129.5,87.9l-4.1-14.1c-0.2-1-1.2-1.8-2.2-1.8h-2.4c-1,0-2,0.8-2.2,1.8l-4.1,14.1c-0.2,1,0.4,1.8,1.4,1.8h0.5
		h1.8l0.1,1.8l0.3,3.5c0.1,1,0.8,1.8,1.7,1.8h3c0.8,0,1.6-0.8,1.7-1.8l0.3-3.5l0.1-1.8h1.8h0.7C129.1,89.7,129.7,88.9,129.5,87.9
		 M127,65.5l-1.5,0.4c-0.4-1.5-1.8-2.6-3.5-2.6s-3,1.1-3.5,2.6l-1.5-0.4c-0.2,0-0.3,0.1-0.3,0.3v0.1v0.4v1.4V68v0.1
		c0,0.2,0.2,0.3,0.3,0.3l1.5-0.4c0.4,1.5,1.8,2.6,3.5,2.6c1.7,0,3-1.1,3.5-2.6l1.5,0.4c0.2,0,0.3-0.1,0.3-0.3V68v-0.4v-1.4v-0.4
		v-0.1C127.4,65.5,127.2,65.4,127,65.5"/>
	<g>
		<path class="st1" d="M191,84.8l-1.2-5.8c-0.2-0.8-0.9-1.4-1.7-1.4h-1h-2.8h-1c-0.8,0-1.5,0.6-1.7,1.4l-1.2,5.8
			c-0.2,0.8,0.2,1.4,0.9,1.4h1.2l0.1,1.4l0.6,7.8c0.1,0.8,0.6,1.4,1.3,1.4h2.4c0.6,0,1.2-0.6,1.3-1.4l0.6-7.8l0.1-1.4h1.3
			C190.7,86.2,191.1,85.6,191,84.8"/>
		<path class="st1" d="M188.4,73.7c0-1.5-1.3-2.8-2.8-2.8c-1.5,0-2.8,1.3-2.8,2.8s1.3,2.8,2.8,2.8C187.2,76.5,188.4,75.3,188.4,73.7
			"/>
	</g>
	<g>
		<path class="st1" d="M175.2,84.8l-5.6-19c-0.3-1.3-1.6-2.4-2.9-2.4h-3.2c-1.3,0-2.7,1.1-3,2.4l-5.5,19c-0.3,1.3,0.6,2.4,2,2.4h0.7
			h2.5l0.2,2.4l0.4,4.7c0.1,1.3,1.1,2.4,2.2,2.4h4.1c1.1,0,2.1-1.1,2.3-2.4l0.4-4.7l0.2-2.4h2.5h0.9
			C174.7,87.2,175.5,86.1,175.2,84.8"/>
		<path class="st1" d="M170.1,56.5c0-2.7-2.2-4.9-4.9-4.9c-2.7,0-4.9,2.2-4.9,4.9c0,2.7,2.2,4.9,4.9,4.9
			C167.9,61.4,170.1,59.2,170.1,56.5"/>
	</g>
	<g>
		<path class="st1" d="M151.5,75.8c0.3,1.3-0.5,2.4-1.7,2.4h-2.2l-0.2,2.4l-1.1,13.6c-0.1,1.3-1.1,2.4-2.2,2.4H140
			c-1.1,0-2.1-1.1-2.2-2.4l-1.1-13.6l-0.2-2.4h-2.1c-1.2,0-1.9-1.1-1.6-2.4l2.2-10.1c0.3-1.3,1.6-2.4,3-2.4h1.8h4.9h1.8
			c1.3,0,2.7,1.1,3,2.4L151.5,75.8"/>
		<path class="st1" d="M147,56.5c0-2.7-2.2-4.9-4.9-4.9c-2.7,0-4.9,2.2-4.9,4.9c0,2.7,2.2,4.9,4.9,4.9C144.9,61.4,147,59.2,147,56.5
			"/>
	</g>
</g>
</svg>
