<?xml version="1.0" encoding="utf-8"?>
<!-- Generator: Adobe Illustrator 20.1.0, SVG Export Plug-In . SVG Version: 6.00 Build 0)  -->
<svg version="1.1" id="Layer_1" xmlns="http://www.w3.org/2000/svg" xmlns:xlink="http://www.w3.org/1999/xlink" x="0px" y="0px"
	 viewBox="0 0 216 108" style="enable-background:new 0 0 216 108;" xml:space="preserve">
<style type="text/css">
	.st0{fill:none;stroke:#D8D8D7;stroke-width:2;stroke-miterlimit:10;}
	.st1{fill:#FAAF40;}
</style>
<path class="st0" d="M96.8,45.9L64.7,15.7c-1.1-0.8-2.6-0.8-3.6,0L28.9,45.9c-0.7,0.6-1.1,1.4-1.1,2.3v45.4H98V48.2
	C98,47.3,97.5,46.5,96.8,45.9L96.8,45.9z"/>
<rect x="53.3" y="62.2" class="st0" width="19.2" height="31.1"/>
<line class="st0" x1="13.1" y1="93.6" x2="204.5" y2="93.6"/>
<g>
	<g>
		<path class="st1" d="M149,84.8l-1.2-5.8c-0.2-0.8-0.9-1.4-1.7-1.4h-1h-2.8h-1c-0.8,0-1.5,0.6-1.7,1.4l-1.2,5.8
			c-0.2,0.8,0.2,1.4,0.9,1.4h1.2l0.1,1.4l0.6,7.8c0.1,0.8,0.6,1.4,1.3,1.4h2.4c0.6,0,1.2-0.6,1.3-1.4l0.6-7.8l0.1-1.4h1.3
			C148.7,86.2,149.1,85.6,149,84.8"/>
		<path class="st1" d="M146.4,73.7c0-1.5-1.3-2.8-2.8-2.8s-2.8,1.3-2.8,2.8s1.3,2.8,2.8,2.8C145.2,76.5,146.4,75.3,146.4,73.7"/>
	</g>
	<g>
		<path class="st1" d="M133.2,84.8l-5.6-19c-0.3-1.3-1.6-2.4-2.9-2.4h-3.2c-1.3,0-2.7,1.1-3,2.4l-5.5,19c-0.3,1.3,0.6,2.4,2,2.4h0.7
			h2.5l0.2,2.4l0.4,4.7c0.1,1.3,1.1,2.4,2.2,2.4h4.1c1.1,0,2.1-1.1,2.3-2.4l0.4-4.7l0.2-2.4h2.5h0.9
			C132.7,87.2,133.5,86.1,133.2,84.8"/>
		<path class="st1" d="M128.1,56.5c0-2.7-2.2-4.9-4.9-4.9s-4.9,2.2-4.9,4.9s2.2,4.9,4.9,4.9C125.9,61.4,128.1,59.2,128.1,56.5"/>
	</g>
</g>
</svg>
