<?xml version="1.0" encoding="utf-8"?>
<!-- Generator: Adobe Illustrator 20.1.0, SVG Export Plug-In . SVG Version: 6.00 Build 0)  -->
<svg version="1.1" id="Layer_1" xmlns="http://www.w3.org/2000/svg" xmlns:xlink="http://www.w3.org/1999/xlink" x="0px" y="0px"
	 viewBox="0 0 216 108" style="enable-background:new 0 0 216 108;" xml:space="preserve">
<style type="text/css">
	.st0{fill:none;stroke:#D8D8D7;stroke-width:2;stroke-miterlimit:10;}
	.st1{fill:#FAAF40;}
</style>
<g sketch:type="MSPage">
	<g>
		<path sketch:type="MSShapeGroup" class="st0" d="M94.8,46.4L66.7,16.2c-1.1-0.8-2.6-0.8-3.6,0L34.9,46.4c-0.7,0.6-1.1,1.4-1.1,2.3
			v45.4H96V48.7C96,47.8,95.5,47,94.8,46.4L94.8,46.4z"/>
		<path class="st0" d="M74.5,93.8H55.3V62.7h19.2V93.8z"/>
	</g>
</g>
<line class="st0" x1="15.1" y1="94.1" x2="206.5" y2="94.1"/>
<g>
	<path class="st1" d="M138,78c0.3,1.3-0.5,2.4-1.7,2.4h-2.2l-0.2,2.4l-1.1,13.6c-0.1,1.3-1.1,2.4-2.2,2.4h-4.1
		c-1.1,0-2.1-1.1-2.2-2.4l-1.1-13.6l-0.2-2.4h-2.1c-1.2,0-1.9-1.1-1.6-2.4l2.2-10.1c0.3-1.3,1.6-2.4,3-2.4h1.8h4.9h1.8
		c1.3,0,2.7,1.1,3,2.4L138,78"/>
	<path class="st1" d="M133.5,58.6c0-2.7-2.2-4.9-4.9-4.9c-2.7,0-4.9,2.2-4.9,4.9c0,2.7,2.2,4.9,4.9,4.9
		C131.4,63.5,133.5,61.3,133.5,58.6"/>
</g>
</svg>
