<?xml version="1.0" encoding="utf-8"?>
<!-- Generator: Adobe Illustrator 20.1.0, SVG Export Plug-In . SVG Version: 6.00 Build 0)  -->
<svg version="1.1" id="Layer_1" xmlns="http://www.w3.org/2000/svg" xmlns:xlink="http://www.w3.org/1999/xlink" x="0px" y="0px"
	 viewBox="0 0 216 108" style="enable-background:new 0 0 216 108;" xml:space="preserve">
<style type="text/css">
	.st0{fill:none;stroke:#D8D8D7;stroke-width:2;stroke-miterlimit:10;}
	.st1{fill:#FAAF40;}
</style>
<path class="st0" d="M92.8,45.9L64.7,15.7c-1.1-0.8-2.6-0.8-3.6,0L32.9,45.9c-0.7,0.6-1.1,1.4-1.1,2.3v45.4H94V48.2
	C94,47.3,93.5,46.5,92.8,45.9L92.8,45.9z"/>
<rect x="53.3" y="62.2" class="st0" width="19.2" height="31.1"/>
<line class="st0" x1="13.1" y1="93.6" x2="204.5" y2="93.6"/>
<g>
	<g>
		<path class="st1" d="M130,75.8c0.3,1.3-0.5,2.4-1.7,2.4h-2.2l-0.2,2.4l-1.1,13.6c-0.1,1.3-1.1,2.4-2.2,2.4h-4.1
			c-1.1,0-2.1-1.1-2.2-2.4l-1.1-13.6l-0.2-2.4h-2.1c-1.2,0-1.9-1.1-1.6-2.4l2.2-10.1c0.3-1.3,1.6-2.4,3-2.4h1.8h4.9h1.8
			c1.3,0,2.7,1.1,3,2.4L130,75.8"/>
		<path class="st1" d="M125.5,56.5c0-2.7-2.2-4.9-4.9-4.9c-2.7,0-4.9,2.2-4.9,4.9c0,2.7,2.2,4.9,4.9,4.9
			C123.4,61.4,125.5,59.2,125.5,56.5"/>
	</g>
</g>
</svg>
