<?xml version="1.0" encoding="utf-8"?>
<!-- Generator: Adobe Illustrator 20.1.0, SVG Export Plug-In . SVG Version: 6.00 Build 0)  -->
<svg version="1.1" id="Layer_1" xmlns="http://www.w3.org/2000/svg" xmlns:xlink="http://www.w3.org/1999/xlink" x="0px" y="0px"
	 viewBox="0 0 216 108" style="enable-background:new 0 0 216 108;" xml:space="preserve">
<style type="text/css">
	.st0{fill:none;stroke:#D8D8D7;stroke-width:2;stroke-miterlimit:10;}
	.st1{fill:#FAAF40;}
</style>
<path class="st0" d="M92.8,45.9L64.7,15.7c-1.1-0.8-2.6-0.8-3.6,0L32.9,45.9c-0.7,0.6-1.1,1.4-1.1,2.3v45.4H94V48.2
	C94,47.3,93.5,46.5,92.8,45.9L92.8,45.9z"/>
<rect x="53.3" y="62.2" class="st0" width="19.2" height="31.1"/>
<line class="st0" x1="13.1" y1="93.6" x2="204.5" y2="93.6"/>
<g>
	<g>
		<path class="st1" d="M130.5,84.8l-5.6-19c-0.3-1.3-1.6-2.4-2.9-2.4h-3.2c-1.3,0-2.7,1.1-3,2.4l-5.5,19c-0.3,1.3,0.6,2.4,2,2.4h0.7
			h2.5l0.2,2.4l0.4,4.7c0.1,1.3,1.1,2.4,2.2,2.4h4.1c1.1,0,2.1-1.1,2.3-2.4l0.4-4.7l0.2-2.4h2.5h0.9C130,87.2,130.8,86.1,130.5,84.8
			"/>
		<path class="st1" d="M125.4,56.5c0-2.7-2.2-4.9-4.9-4.9s-4.9,2.2-4.9,4.9s2.2,4.9,4.9,4.9C123.2,61.4,125.4,59.2,125.4,56.5"/>
	</g>
</g>
</svg>
